<svg xmlns="http://www.w3.org/2000/svg" viewBox="0 0 351.941 351.941"><path d="M319.971 152.464c-.842-7.348-4.186-13.776-8.996-18.051C309.908 60.114 249.764 0 175.971 0S42.031 60.114 40.965 134.413c-4.807 4.273-8.15 10.695-8.994 18.038-13.549 3.284-23.643 15.511-23.643 30.057v31.863c0 14.545 10.094 26.772 23.643 30.057 1.523 13.268 11.221 23.533 22.926 23.533H66.73c12.76 0 23.139-12.194 23.139-27.184v-84.676c0-8.378-3.244-15.881-8.332-20.871.631-52.146 42.748-94.373 94.434-94.373s93.801 42.226 94.435 94.371c-5.092 4.99-8.338 12.494-8.338 20.873v84.676c0 14.363 9.535 26.152 21.559 27.113v23.824c0 16.263-13.23 29.494-29.494 29.494h-24.27c-3.127-9.141-11.797-15.734-21.982-15.734h-16.178c-12.811 0-23.232 10.423-23.232 23.234 0 12.811 10.422 23.233 23.232 23.233h16.178c10.186 0 18.855-6.592 21.982-15.733h24.27c24.533 0 44.494-19.96 44.494-44.494V267.89c10.988-.877 19.895-10.805 21.344-23.475 13.547-3.285 23.643-15.502 23.643-30.045v-31.863c-.001-14.543-10.096-26.759-23.643-30.043zM31.756 228.387c-5.006-2.684-8.428-7.947-8.428-14.016v-31.863c0-6.068 3.422-11.334 8.428-14.018v59.897zm176.125 108.554h-16.178c-4.539 0-8.232-3.693-8.232-8.233 0-4.54 3.693-8.234 8.232-8.234h16.178c4.539 0 8.232 3.694 8.232 8.234s-3.693 8.233-8.232 8.233zM74.869 240.777c0 6.49-3.803 12.184-8.139 12.184H54.896c-4.336 0-8.141-5.693-8.141-12.184v-84.676c0-6.49 3.805-12.184 8.141-12.184H66.73c4.336 0 8.139 5.693 8.139 12.184v84.676zm101.102-214.92c-57.854 0-105.356 45.584-109.186 103.063l-.055-.002H56.178C60.021 65.448 112.275 15 175.971 15c63.693 0 115.947 50.449 119.791 113.918h-10.551l-.047.002c-3.83-57.479-51.338-103.063-109.193-103.063zm129.213 214.92c0 6.49-3.803 12.184-8.141 12.184h-11.832c-4.338 0-8.143-5.693-8.143-12.184v-84.676c0-6.49 3.805-12.184 8.143-12.184h11.832c4.338 0 8.141 5.693 8.141 12.184v84.676zm23.429-26.406c0 6.069-3.422 11.335-8.43 14.018v-59.895c5.008 2.684 8.43 7.945 8.43 14.014v31.863z"/></svg>