<?xml version="1.0" encoding="iso-8859-1"?>
<!-- Generator: Adobe Illustrator 19.0.0, SVG Export Plug-In . SVG Version: 6.00 Build 0)  -->
<svg xmlns="http://www.w3.org/2000/svg" xmlns:xlink="http://www.w3.org/1999/xlink" version="1.1" id="Layer_1" x="0px" y="0px" viewBox="0 0 512 512" style="enable-background:new 0 0 512 512;" xml:space="preserve">
<g>
	<g>
		<g>
			<path d="M245.221,328.758h21.558c4.465,0,8.084-3.62,8.084-8.084c0-4.465-3.62-8.084-8.084-8.084h-21.558     c-4.465,0-8.084,3.62-8.084,8.084C237.137,325.138,240.756,328.758,245.221,328.758z"/>
			<path d="M299.116,328.758h21.558c4.465,0,8.084-3.62,8.084-8.084c0-4.465-3.62-8.084-8.084-8.084h-21.558     c-4.465,0-8.084,3.62-8.084,8.084C291.032,325.138,294.651,328.758,299.116,328.758z"/>
			<path d="M243.884,206.589c1.505,2.258,4.034,3.6,6.725,3.6c0.167,0,0.335-0.005,0.503-0.016c2.876-0.179,5.44-1.876,6.728-4.453     l32.337-64.674c1.997-3.994,0.378-8.85-3.615-10.846c-3.991-1.996-8.848-0.377-10.846,3.615l-26.108,52.213l-13.831-20.745     c-2.477-3.714-7.496-4.719-11.21-2.242c-3.716,2.476-4.719,7.496-2.242,11.21L243.884,206.589z"/>
			<path d="M191.326,328.758h21.558c4.465,0,8.084-3.62,8.084-8.084c0-4.465-3.62-8.084-8.084-8.084h-21.558     c-4.465,0-8.084,3.62-8.084,8.084C183.242,325.138,186.862,328.758,191.326,328.758z"/>
			<path d="M493.137,32.337H361.095V18.863C361.095,8.463,352.632,0,342.232,0H169.768c-10.401,0-18.863,8.463-18.863,18.863v13.474     H18.863C8.463,32.337,0,40.799,0,51.2v291.032c0,10.401,8.463,18.863,18.863,18.863h175.158v13.474     c0,10.401,8.463,18.863,18.863,18.863h13.474v59.284h-35.032c-10.401,0-18.863,8.463-18.863,18.863v24.253H148.21     c-4.465,0-8.084,3.62-8.084,8.084c0,4.465,3.62,8.084,8.084,8.084h118.568c4.465,0,8.084-3.62,8.084-8.084     c0-4.465-3.62-8.084-8.084-8.084h-78.147v-24.253c0-1.485,1.209-2.695,2.695-2.695h129.347c1.485,0,2.695,1.209,2.695,2.695     v24.253h-24.253c-4.465,0-8.084,3.62-8.084,8.084c0,4.465,3.62,8.084,8.084,8.084h64.674c4.465,0,8.084-3.62,8.084-8.084     c0-4.465-3.62-8.084-8.084-8.084h-24.253v-24.253c0-10.401-8.463-18.863-18.863-18.863h-35.032v-59.284h13.474     c10.401,0,18.863-8.463,18.863-18.863v-13.474h175.158c10.401,0,18.863-8.463,18.863-18.863V51.2     C512,40.799,503.537,32.337,493.137,32.337z M269.474,452.716h-26.947v-59.284h26.947V452.716z M495.832,342.232     c0,1.485-1.209,2.695-2.695,2.695h-204.8c-4.465,0-8.084,3.62-8.084,8.084c0,4.465,3.62,8.084,8.084,8.084h13.474v13.474     c0,1.485-1.209,2.695-2.695,2.695h-21.558h-64.674c-1.485,0-2.695-1.209-2.695-2.695v-13.474H256c4.465,0,8.084-3.62,8.084-8.084     c0-4.465-3.62-8.084-8.084-8.084H18.863c-1.485,0-2.695-1.209-2.695-2.695v-45.81h479.663V342.232z M495.832,280.253H16.168     v-102.4H78.54l14.504,29.007c2.297,4.594,6.915,7.447,12.051,7.447s9.754-2.854,12.051-7.448l14.504-29.006h41.201     c4.08,42.284,39.814,75.453,83.149,75.453s79.069-33.169,83.149-75.453h46.199c3.062,0,5.862-1.73,7.231-4.469l14.327-28.654     l14.327,28.654c1.369,2.739,4.168,4.469,7.231,4.469h67.368V280.253z M188.632,169.768c0-37.146,30.222-67.368,67.368-67.368     s67.368,30.222,67.368,67.368S293.146,237.137,256,237.137S188.632,206.915,188.632,169.768z M495.832,161.684h-62.372     l-14.504-29.007c-2.297-4.594-6.915-7.447-12.051-7.447s-9.754,2.854-12.051,7.448l-14.503,29.006h-41.203     c-4.08-42.284-39.814-75.453-83.149-75.453c-43.335,0-79.069,33.169-83.149,75.453h-46.198c-3.062,0-5.861,1.73-7.231,4.469     l-14.327,28.655l-14.327-28.655c-1.369-2.739-4.168-4.469-7.231-4.469H16.168V51.2c0-1.485,1.209-2.695,2.695-2.695h269.474     c4.465,0,8.084-3.62,8.084-8.084c0-4.465-3.62-8.084-8.084-8.084H167.074V18.863c0-1.485,1.209-2.695,2.695-2.695h172.463     c1.485,0,2.695,1.209,2.695,2.695v13.474h-24.253c-4.465,0-8.084,3.62-8.084,8.084c0,4.465,3.62,8.084,8.084,8.084h172.463     c1.485,0,2.695,1.209,2.695,2.695V161.684z"/>
		</g>
	</g>
</g>
<g>
</g>
<g>
</g>
<g>
</g>
<g>
</g>
<g>
</g>
<g>
</g>
<g>
</g>
<g>
</g>
<g>
</g>
<g>
</g>
<g>
</g>
<g>
</g>
<g>
</g>
<g>
</g>
<g>
</g>
</svg>
