<?xml version="1.0" encoding="iso-8859-1"?>
<!-- Generator: Adobe Illustrator 19.0.0, SVG Export Plug-In . SVG Version: 6.00 Build 0)  -->
<svg xmlns="http://www.w3.org/2000/svg" xmlns:xlink="http://www.w3.org/1999/xlink" version="1.1" id="Layer_1" x="0px" y="0px" viewBox="0 0 512 512" style="enable-background:new 0 0 512 512;" xml:space="preserve">
<g>
	<g>
		<g>
			<path d="M291.101,258.648l4.885-9.646c2.018-3.984,0.424-8.847-3.559-10.865c-3.982-2.019-8.846-0.424-10.864,3.559l-4.885,9.646     c-2.34,4.621-7.066,7.491-12.331,7.491h-16.692c-5.266,0-9.991-2.87-12.331-7.491l-4.886-9.646     c-2.018-3.984-6.885-5.576-10.865-3.559c-3.983,2.018-5.577,6.882-3.559,10.865l4.886,9.647     c5.11,10.087,15.362,16.354,26.756,16.354h16.692C275.74,275.003,285.991,268.736,291.101,258.648z"/>
			<path d="M287.41,186.028h12.29c4.466,0,8.084-3.62,8.084-8.084c0-4.465-3.618-8.084-8.084-8.084h-12.29     c-4.466,0-8.084,3.62-8.084,8.084C279.326,182.41,282.944,186.028,287.41,186.028z"/>
			<path d="M421.02,326.717l-27.362-5.788c-0.108-0.025-0.216-0.047-0.324-0.068l-48.183-10.193     c-0.106-0.025-0.212-0.047-0.32-0.068l-22.54-4.769v-6.28c4.773-2.25,9.352-4.974,13.682-8.155     c14.238-10.457,24.46-24.859,29.563-41.652c9.9-32.574,16.444-66.218,19.48-100.115h1.091c14.042,0,25.466-11.323,25.466-25.242     c0-6.664-2.731-13.183-7.496-17.887l-17.156-16.936c-1.794-43-37.338-77.433-80.772-77.433h-5.272     C297.691,4.951,290.415,0,282.212,0h-52.426c-8.203,0-15.479,4.951-18.665,12.133h-5.271c-43.42,0-78.956,34.412-80.77,77.431     l-17.158,16.938c-4.763,4.703-7.496,11.222-7.496,17.887c0,13.919,11.424,25.242,25.465,25.242h1.091     c3.035,33.893,9.58,67.537,19.481,100.115c5.103,16.791,15.326,31.194,29.563,41.652c4.331,3.181,8.909,5.906,13.682,8.155v6.28     l-22.547,4.77c-0.102,0.019-0.204,0.041-0.305,0.065l-48.212,10.198c-0.095,0.018-0.189,0.039-0.282,0.06l-27.384,5.793     c-21.488,4.546-37.084,23.624-37.084,45.364v110.264c0,16.352,13.428,29.654,29.934,29.654h226.874     c4.466,0,8.084-3.62,8.084-8.084c0-4.465-3.618-8.084-8.084-8.084H128.269V335.356l32.337-6.84v50.906     c0,25.58,21.034,46.39,46.888,46.39h37.726c4.465,0,8.084-3.62,8.084-8.084s-3.62-8.084-8.084-8.084h-37.726     c-16.939,0-30.72-13.558-30.72-30.222v-54.326l17.366-3.673l24.994,37.012c8.245,12.207,22.026,19.496,36.864,19.496     c14.839,0,28.62-7.289,36.864-19.496l24.994-37.012l17.368,3.673v54.326c0,3.039-0.445,5.994-1.326,8.832H288.63     c-10.401,0-18.863,8.463-18.863,18.863v21.581c0,10.401,8.463,18.863,18.863,18.863h54.917c10.401,0,18.863-8.463,18.863-18.863     v-21.581c0-8.026-5.039-14.898-12.119-17.617c0.734-3.278,1.103-6.644,1.103-10.078v-50.906l32.337,6.84v160.476h-40.421     c-4.466,0-8.084,3.62-8.084,8.084c0,4.465,3.618,8.084,8.084,8.084h84.862c16.506,0,29.934-13.302,29.934-29.654V372.082     C458.105,350.341,442.508,331.263,421.02,326.717z M112.101,495.832H83.829c-7.591,0-13.766-6.049-13.766-13.485V372.082     c0-14.146,10.203-26.572,24.262-29.546l17.776-3.761V495.832z M306.149,28.301c32.912,0,60.161,24.715,64.167,56.589h-58.161     l-8.189-56.589H306.149z M134.367,133.462h-8.474c-5.126,0-9.297-4.07-9.297-9.074c0-2.404,0.954-4.671,2.686-6.38l19.49-19.24     c1.538-1.519,2.405-3.631,2.405-5.794c0-35.661,29.013-64.674,64.674-64.674h2.183l-8.19,56.589h-29.716     c-4.465,0-8.084,3.62-8.084,8.084c0,4.465,3.62,8.084,8.084,8.084h75.094c4.465,0,8.084-3.62,8.084-8.084     c0-4.465-3.62-8.084-8.084-8.084h-29.04l9.169-63.354c0.016-0.1,0.031-0.202,0.044-0.302l0.227-1.575     c0.288-1.99,2.079-3.49,4.166-3.49h52.426c2.088,0,3.879,1.5,4.166,3.49l0.224,1.549c0.015,0.119,0.031,0.236,0.052,0.354     l9.164,63.33h-18.262c-4.466,0-8.084,3.62-8.084,8.084c0,4.465,3.618,8.084,8.084,8.084h97.99l17.17,16.949     c1.732,1.711,2.686,3.976,2.686,6.38c0,5.004-4.17,9.074-9.298,9.074h-8.471c-0.051,0-0.101,0-0.152,0H134.515     C134.466,133.462,134.418,133.462,134.367,133.462z M272.168,307.358h14.999c6.459,0,12.806-0.734,18.955-2.173v4.727     l-26.657,39.473c-5.232,7.749-14.004,12.376-23.465,12.376c-9.458,0-18.232-4.626-23.466-12.376l-26.656-39.473v-4.727     c6.149,1.439,12.496,2.173,18.955,2.173h14.999c4.465,0,8.084-3.62,8.084-8.084c0-4.465-3.62-8.084-8.084-8.084h-14.999     c-29.234,0-54.511-18.545-62.899-46.146c-9.437-31.056-15.722-63.113-18.714-95.414h104.697v55.281h-2.841     c-4.465,0-8.084,3.62-8.084,8.084c0,4.465,3.62,8.084,8.084,8.084h21.85c4.466,0,8.084-3.62,8.084-8.084     c0-4.465-3.618-8.084-8.084-8.084h-2.84V149.63h104.697c-2.992,32.307-9.276,64.36-18.714,95.414     c-8.388,27.601-33.665,46.146-62.899,46.146h-14.999c-4.466,0-8.084,3.62-8.084,8.084     C264.084,303.739,267.703,307.358,272.168,307.358z M346.241,428.697c0,1.485-1.208,2.695-2.695,2.695H288.63     c-1.486,0-2.695-1.209-2.695-2.695v-21.581c0-1.485,1.208-2.695,2.695-2.695h50.479c0.143,0.004,0.288,0.004,0.43,0h4.008     c1.486,0,2.695,1.209,2.695,2.695V428.697z M441.937,482.346c0,7.435-6.175,13.485-13.766,13.485h-28.272V338.776l17.776,3.76     c14.058,2.974,24.262,15.4,24.262,29.546V482.346z"/>
			<path d="M232.674,177.944c0-4.465-3.62-8.084-8.084-8.084H212.3c-4.465,0-8.084,3.62-8.084,8.084c0,4.465,3.62,8.084,8.084,8.084     h12.29C229.055,186.028,232.674,182.409,232.674,177.944z"/>
		</g>
	</g>
</g>
<g>
</g>
<g>
</g>
<g>
</g>
<g>
</g>
<g>
</g>
<g>
</g>
<g>
</g>
<g>
</g>
<g>
</g>
<g>
</g>
<g>
</g>
<g>
</g>
<g>
</g>
<g>
</g>
<g>
</g>
</svg>
